# xmcd CD database file
#
# Track frame offsets:
#	213
#	16056
#	31048
#	45949
#	60879
#	76322
#	95655
#	111756
#	130964
#	145652
#
# Disc length: 2144 seconds
#
# Revision: 2
# Processed by: cddbd v1.5.2PL0 Copyright (c) Steve Scherf et al.
# Submitted via: CDex 1.79
#
DISCID=6c085e0a
DTITLE=Anna Garrott - Only Time Will Tell
DYEAR=2010
DGENRE=Country
TTITLE0=What A Way To Go
TTITLE1=Two More Bottles Of Wine
TTITLE2=Silver Wings
TTITLE3=Trouble Is A Woman
TTITLE4=As Soon As I Am Over You
TTITLE5=Pink Roses
TTITLE6=To My Heart From Me
TTITLE7=Only Time Will Tell
TTITLE8=Where We Wanna Go
TTITLE9=Get The Hell Outta Dodge
EXTD=YEAR: 2010
EXTT0=
EXTT1=
EXTT2=
EXTT3=
EXTT4=
EXTT5=
EXTT6=
EXTT7=
EXTT8=
EXTT9=
PLAYORDER=
